<svg version="1" xmlns="http://www.w3.org/2000/svg" width="682.667" height="682.667" viewBox="0 0 512.000000 512.000000"><path d="M232 .6c-9.1.9-29.6 4.5-39.1 6.9-90.5 23-162.4 94.9-185.4 185.4C1.8 215.7.6 226.4.6 256s1.2 40.3 6.9 63.1c23 90.5 94.9 162.4 185.4 185.4 22.8 5.7 33.5 6.9 63.1 6.9s40.3-1.2 63.1-6.9c90.5-23 162.4-94.9 185.4-185.4 5.7-22.8 6.9-33.5 6.9-63.1s-1.2-40.3-6.9-63.1c-23-90.5-94.9-162.4-185.4-185.4-20.5-5.2-33-6.7-58.6-7-13.2-.1-26-.1-28.5.1zm14 77c2.9 1.6 6.4 4.3 7.7 6.1 2.4 3.1 2.9 3.3 8.8 3.3 11.3 0 24.5 5.7 31.3 13.5 2.9 3.2 3.1 3.3 9.4 2.8 10.5-.9 19.9 3.5 24.8 11.6 1.6 2.6 3.2 4.1 4.6 4.1 3.7 0 10.8 3 14.6 6 2.6 2.1 4.8 3 7.5 3 7.6.1 15.6 5.7 18.7 13.2 3.1 7.4 1.1 18.4-4.3 23.2-1.8 1.6-2.1 3-2.1 9.3v7.3h29.8c33.4 0 40.3.7 48.1 4.7 23.3 11.9 20 49.1-9 102.6-23.8 43.7-41.2 64.2-63.4 74.3l-5.3 2.5-.4 19.2c-.3 17.1-.5 19.7-2.4 23.8-4.6 9.9-12.9 16.1-24.1 17.9-8.4 1.4-152.3 1.3-159.8-.1-3.3-.6-7.5-1.9-9.5-2.9-5.6-2.9-11.8-9.8-14-15.7-2-5.3-2-7.9-2-119.7V173.2l-3-1.2c-6.1-2.5-12-11.6-12-18.5 0-9.8 10-20.4 19.2-20.5 2.2 0 3.2-.8 4.9-4.1 2.7-5.5 9.1-12.2 14.3-15.3 2.4-1.4 5.1-3.7 6-5.1 2.5-3.7 8.9-7.6 15.7-9.4 6-1.6 6.1-1.6 7.9-7 5.1-15.3 23.6-22.4 38-14.5z"/><path d="M347.2 177.3c-2.1 2.5-11.7 5.7-17.2 5.7h-5v89.2l-2.9 2.9c-3.5 3.5-7.7 3.8-11.4.9-1.3-1.1-2.7-3-3.1-4.4-.5-2.1-1-2.3-5-1.9-3.5.4-4.8.1-6.5-1.6-2.7-2.7-2.7-7.1 0-10 1.8-1.9 2.9-2.2 6.5-1.8l4.4.5v-18.2c0-17.8 0-18.1-2.2-19.1-4.7-2.1-4.9-10.6-.3-12.7 2.4-1.1 2.5-1.5 2.5-10V188l-3.7 2.4c-8 5.3-19.3 7.3-30 5.3-3.9-.7-4.3-.5-4.3 1.3 0 3.2-4.6 11.5-8 14.3l-3 2.6v17c0 14.2.3 17.4 1.7 19.9 1.7 2.9 1.7 3.2 0 6.7-1.2 2.5-1.7 6.1-1.7 12 0 7.8-.2 8.5-2.6 10.4-3.5 2.8-6.9 2.6-9.9-.4l-2.5-2.4V248c0-25.1-.2-29-1.5-29s-1.5 4.2-1.5 32.2c0 28.8.2 32.3 1.7 34 2.2 2.4 2.2 8.2 0 10.6-1.2 1.3-1.7 3.6-1.7 7.3 0 6.6-2.3 11.6-6.9 14.6-6.9 4.6-16.5 1.9-20.3-5.7-1.6-3.2-1.8-8.1-1.8-58.4v-54.9l-3.5-3.8c-1.9-2.2-3.5-4.5-3.5-5.3 0-.9-2.1-1.5-6.7-2-9.2-.8-12.9-2-19.6-6l-5.7-3.5.2 104.2.3 104.2 2.8 5.7c3.4 6.9 8.4 11.3 15.1 13.3 7.6 2.3 132.9 2.2 140.5-.1 6.7-1.9 13.2-7.8 16-14.4l2.1-4.9-.2-105.2c-.3-88.1-.5-104.9-1.6-103.6zM277 206c4.4 4.4 1.3 13-4.8 13-4 0-7.2-3.3-7.2-7.5 0-4.4 2.9-7.5 7-7.5 1.7 0 3.9.9 5 2zm-90.6 15.6c.9 2.4.7 90.7-.3 92.2-.5.8-2.1 1.2-3.7 1l-2.9-.3-.3-46c-.1-25.3 0-46.6.3-47.3.7-1.8 6.2-1.5 6.9.4zm106 16.5c7.3 5.7-1.5 16.7-9.2 11.3-1.7-1.2-2.2-2.5-2.2-5.9 0-3.4.5-4.7 2.2-5.9 3.1-2.2 6-2 9.2.5zm-10.1 27.1c3.7 4.9.3 10.8-6.3 10.8-4.5 0-7-2.6-7-7.2 0-6.7 9.1-9.2 13.3-3.6zm5.5 20.4c1.6 1.1 2.2 2.5 2.2 5.2 0 4.5-.8 5.8-4.3 7.1-4.9 1.9-9.7-1.4-9.7-6.6 0-6.2 6.5-9.4 11.8-5.7zm-24.4 14.6c3.7 5.2.4 11.8-5.9 11.8-6.2 0-9.8-7.7-5.5-12 2.9-2.9 9.4-2.7 11.4.2zM269 325c4.5 4.5 1.1 12-5.5 12-4 0-7.5-2.8-7.5-6.1 0-2.3 1.8-6 3.4-7.1 2.2-1.5 7.6-.8 9.6 1.2zm24.3 15.2c3.7 4.9.3 10.8-6.3 10.8-4.5 0-7-2.6-7-7.2 0-6.7 9.1-9.2 13.3-3.6zM367 275c0 31.3.3 57 .6 57 2.6 0 14.1-7.7 19.4-13 9.9-9.9 22.8-30.4 31.6-50.4 9.3-21 9.9-38.5 1.8-45.7-5.2-4.6-7.3-4.9-30.9-4.9H367v57z"/></svg>